<svg width="20" height="20" viewBox="0 0 20 20" fill="none" xmlns="http://www.w3.org/2000/svg">
<path d="M16.641 17.8211L13.8443 15.0245C12.6378 15.5738 11.325 15.8506 9.99935 15.8353C8.63258 15.8523 7.27994 15.5573 6.04435 14.9728C5.08658 14.5055 4.22655 13.8601 3.51018 13.0711C2.74976 12.256 2.1521 11.3031 1.74935 10.2636L1.66602 10.002L1.75352 9.73862C2.35586 8.2022 3.36956 6.86126 4.68352 5.86279L2.49935 3.67862L3.67685 2.50195L17.8177 16.6428L16.6427 17.8211H16.641ZM5.86268 7.04279C4.79762 7.78938 3.95656 8.81254 3.43018 10.002C4.55886 12.606 7.16257 14.2575 9.99935 14.1686C10.8742 14.1758 11.744 14.0349 12.5718 13.752L11.0718 12.252C10.738 12.4156 10.3712 12.5011 9.99935 12.502C8.62223 12.4933 7.50799 11.3791 7.49935 10.002C7.49975 9.62926 7.58525 9.26158 7.74935 8.92695L5.86268 7.04279ZM16.5427 13.0103L15.3827 11.8511C15.8707 11.2994 16.2707 10.6757 16.5685 10.002C15.4413 7.3966 12.8366 5.74452 9.99935 5.83529C9.79352 5.83529 9.58685 5.84279 9.38685 5.85695L7.91602 4.38445C8.60071 4.23798 9.29917 4.16562 9.99935 4.16862C11.3661 4.15166 12.7187 4.44664 13.9543 5.03112C14.9121 5.4984 15.7722 6.14378 16.4885 6.93279C17.2486 7.74692 17.8462 8.69868 18.2493 9.73695L18.3327 10.002L18.2452 10.2653C17.855 11.2804 17.2778 12.2132 16.5435 13.0153L16.5427 13.0103Z" fill="#A9A9A9"/>
</svg>
