<svg width="20" height="20" viewBox="0 0 20 20" fill="none" xmlns="http://www.w3.org/2000/svg">
<path d="M9.99935 15.8334C8.63258 15.8504 7.27993 15.5554 6.04435 14.9709C5.08659 14.5036 4.22656 13.8582 3.51018 13.0692C2.75138 12.2535 2.15391 11.3014 1.74935 10.2634L1.66602 10L1.75352 9.73671C2.15836 8.69957 2.75455 7.74777 3.51102 6.93088C4.22713 6.14197 5.08688 5.4966 6.04435 5.02921C7.27994 4.4447 8.63258 4.14972 9.99935 4.16671C11.3661 4.14975 12.7187 4.44473 13.9543 5.02921C14.9121 5.49649 15.7722 6.14187 16.4885 6.93088C17.2488 7.74551 17.8464 8.69785 18.2493 9.73671L18.3327 10L18.2452 10.2634C16.9379 13.6665 13.6445 15.8912 9.99935 15.8334ZM9.99935 5.83338C7.16257 5.74448 4.55886 7.39596 3.43018 10C4.55868 12.6043 7.16251 14.2558 9.99935 14.1667C12.8361 14.2554 15.4396 12.604 16.5685 10C15.4413 7.39469 12.8366 5.74261 9.99935 5.83338ZM9.99935 12.5C8.79712 12.508 7.75715 11.6645 7.51682 10.4865C7.27649 9.30853 7.90291 8.12506 9.01217 7.66143C10.1214 7.19779 11.4037 7.58349 12.0731 8.58213C12.7426 9.58077 12.6122 10.9134 11.7618 11.7634C11.2963 12.2344 10.6616 12.4997 9.99935 12.5Z" fill="#A9A9A9"/>
</svg>
