<svg width="20" height="20" viewBox="0 0 20 20" fill="none" xmlns="http://www.w3.org/2000/svg">
<path class="icon-svg" d="M9.16669 5.83333C9.16669 7.67428 7.6743 9.16667 5.83335 9.16667C3.9924 9.16667 2.50002 7.67428 2.50002 5.83333C2.50002 3.99238 3.9924 2.5 5.83335 2.5C7.6743 2.5 9.16669 3.99238 9.16669 5.83333ZM7.50002 5.83333C7.50002 4.91286 6.75383 4.16667 5.83335 4.16667C4.91288 4.16667 4.16669 4.91286 4.16669 5.83333C4.16669 6.75381 4.91288 7.5 5.83335 7.5C6.75383 7.5 7.50002 6.75381 7.50002 5.83333Z" fill="#A9A9A9"/>
<path class="icon-svg" d="M17.5 9.58333C17.5 11.1942 16.1942 12.5 14.5834 12.5C12.9725 12.5 11.6667 11.1942 11.6667 9.58333C11.6667 7.9725 12.9725 6.66667 14.5834 6.66667C16.1942 6.66667 17.5 7.9725 17.5 9.58333ZM15.8334 9.58333C15.8334 8.89298 15.2737 8.33333 14.5834 8.33333C13.893 8.33333 13.3334 8.89298 13.3334 9.58333C13.3334 10.2737 13.893 10.8333 14.5834 10.8333C15.2737 10.8333 15.8334 10.2737 15.8334 9.58333Z" fill="#A9A9A9"/>
<path class="icon-svg" d="M8.33335 17.5V14.1667C8.33335 12.786 7.21407 11.6667 5.83335 11.6667C4.45264 11.6667 3.33335 12.786 3.33335 14.1667V17.5H1.66669V14.1667C1.66669 11.8655 3.53217 10 5.83335 10C8.13454 10 10 11.8655 10 14.1667V17.5H8.33335Z" fill="#A9A9A9"/>
<path class="icon-svg" d="M16.6667 17.0833V17.5H18.3334V17.0833C18.3334 15.0123 16.6544 13.3333 14.5834 13.3333C12.5123 13.3333 10.8334 15.0123 10.8334 17.0833V17.5H12.5V17.0833C12.5 15.9327 13.4328 15 14.5834 15C15.7339 15 16.6667 15.9327 16.6667 17.0833Z" fill="#A9A9A9"/>
</svg>
