<svg width="41" height="40" viewBox="0 0 41 40" fill="none" xmlns="http://www.w3.org/2000/svg">
<path d="M20.9771 40.0007C9.93399 39.9897 0.989719 31.0305 0.997075 19.9874C1.00444 8.94432 9.96064 -0.00294266 21.0037 0.000733554C32.0468 0.00441204 40.9971 8.95763 40.9971 20.0007C40.9904 31.0515 32.0278 40.0051 20.9771 40.0007ZM4.99708 20.3447C5.09171 29.1472 12.2793 36.2198 21.0822 36.1727C29.885 36.1252 36.9962 28.9757 36.9962 20.1727C36.9962 11.3697 29.885 4.22027 21.0822 4.17272C12.2793 4.12564 5.09171 11.1982 4.99708 20.0007V20.3447ZM22.9971 30.0007H18.9971V26.0007H22.9971V30.0007ZM22.9971 22.0007H18.9971V10.0007H22.9971V22.0007Z" fill="#666666"/>
</svg>
