<svg width="15" height="16" viewBox="0 0 15 16" fill="none" xmlns="http://www.w3.org/2000/svg">
<path d="M7.11117 5.62965V8.00002M7.11117 10.3704H7.11709M12.4445 8.00002C12.4445 8.7004 12.3065 9.39393 12.0385 10.041C11.7705 10.6881 11.3776 11.276 10.8824 11.7713C10.3872 12.2665 9.79921 12.6594 9.15214 12.9274C8.50507 13.1954 7.81155 13.3334 7.11117 13.3334C6.41078 13.3334 5.71726 13.1954 5.07019 12.9274C4.42312 12.6594 3.83517 12.2665 3.33993 11.7713C2.84468 11.276 2.45183 10.6881 2.18381 10.041C1.91578 9.39393 1.77783 8.7004 1.77783 8.00002C1.77783 6.58553 2.33974 5.22898 3.33993 4.22878C4.34012 3.22859 5.69668 2.66669 7.11117 2.66669C8.52565 2.66669 9.88221 3.22859 10.8824 4.22878C11.8826 5.22898 12.4445 6.58553 12.4445 8.00002Z" stroke="#999999" stroke-width="1.18519" stroke-linecap="round" stroke-linejoin="round"/>
</svg>
