<svg width="20" height="20" viewBox="0 0 20 20" fill="none" xmlns="http://www.w3.org/2000/svg">
<path d="M9.99943 18.3337C8.73948 18.3372 7.49545 18.0522 6.36277 17.5003C5.94822 17.2987 5.55104 17.0632 5.17527 16.7962L5.0611 16.7128C4.02761 15.95 3.18266 14.9605 2.5911 13.8203C1.97921 12.6402 1.66186 11.3296 1.66606 10.0003C1.66606 5.39795 5.39706 1.66699 9.99943 1.66699C14.6018 1.66699 18.3328 5.39795 18.3328 10.0003C18.337 11.329 18.0199 12.639 17.4086 13.8187C16.8179 14.9582 15.9741 15.9473 14.9419 16.7103C14.5526 16.9953 14.1394 17.2463 13.7069 17.4603L13.6403 17.4937C12.5069 18.0484 11.2613 18.3358 9.99943 18.3337ZM9.99943 14.167C8.75066 14.1645 7.60582 14.862 7.03527 15.9728C8.90309 16.898 11.0958 16.898 12.9636 15.9728V15.9687C12.3923 14.8591 11.2474 14.1632 9.99943 14.167ZM9.99943 12.5003C11.8045 12.5027 13.4689 13.4754 14.3569 15.047L14.3694 15.0362L14.3811 15.0262L14.3669 15.0387L14.3586 15.0453C16.4661 13.2246 17.2197 10.2856 16.2483 7.67541C15.2769 5.06522 12.7853 3.33392 10.0003 3.33392C7.21519 3.33392 4.72359 5.06522 3.75222 7.67541C2.78086 10.2856 3.53443 13.2246 5.64193 15.0453C6.53048 13.4745 8.19473 12.5025 9.99943 12.5003ZM9.99943 11.667C8.15848 11.667 6.6661 10.1746 6.6661 8.33366C6.6661 6.49271 8.15848 5.00033 9.99943 5.00033C11.8404 5.00033 13.3328 6.49271 13.3328 8.33366C13.3328 9.21771 12.9816 10.0656 12.3565 10.6907C11.7313 11.3158 10.8835 11.667 9.99943 11.667ZM9.99943 6.66699C9.07896 6.66699 8.33277 7.41318 8.33277 8.33366C8.33277 9.25413 9.07896 10.0003 9.99943 10.0003C10.9199 10.0003 11.6661 9.25413 11.6661 8.33366C11.6661 7.41318 10.9199 6.66699 9.99943 6.66699Z" fill="#666666"/>
</svg>
