<svg width="297" height="41" viewBox="0 0 297 41" fill="none" xmlns="http://www.w3.org/2000/svg">
<path d="M180.955 15.5693C182.267 15.5693 183.409 15.3236 184.381 14.8323C185.353 14.3343 186.106 13.6371 186.64 12.7407C187.175 11.8377 187.442 10.7786 187.442 9.56349V7.78067H181.268V9.58341H185.131L185.12 9.90213C185.113 10.6392 184.936 11.2832 184.589 11.8343C184.242 12.3855 183.756 12.8171 183.131 13.1291C182.514 13.4346 181.795 13.5873 180.976 13.5873C180.039 13.5873 179.227 13.3649 178.54 12.92C177.852 12.4685 177.321 11.8277 176.947 10.9977C176.572 10.1611 176.384 9.17174 176.384 8.02967V8.00975C176.384 6.88097 176.568 5.9049 176.936 5.08155C177.311 4.25156 177.839 3.6108 178.519 3.15929C179.199 2.70777 180.001 2.48202 180.924 2.48202C181.951 2.48202 182.812 2.71109 183.506 3.16925C184.207 3.6274 184.69 4.28144 184.954 5.13135L184.985 5.23094H187.327L187.317 5.13135C187.137 4.20176 186.758 3.39169 186.182 2.70113C185.606 2.00394 184.87 1.46279 183.975 1.07767C183.079 0.692558 182.062 0.5 180.924 0.5C179.529 0.5 178.311 0.808756 177.269 1.42627C176.228 2.04378 175.423 2.91693 174.854 4.04572C174.285 5.16787 174 6.49253 174 8.01971V8.03963C174 9.57345 174.281 10.9081 174.843 12.0435C175.413 13.1723 176.218 14.0421 177.259 14.653C178.3 15.2639 179.532 15.5693 180.955 15.5693Z" fill="#9EADBD"/>
<path d="M195.837 15.5693C197.003 15.5693 198.016 15.3867 198.877 15.0215C199.738 14.6563 200.401 14.1417 200.866 13.4777C201.338 12.8071 201.574 12.0136 201.574 11.0973V11.0874C201.574 10.025 201.227 9.17506 200.533 8.53763C199.845 7.90019 198.714 7.42212 197.138 7.1034L195.493 6.75481C194.528 6.55561 193.831 6.28005 193.4 5.92814C192.977 5.56958 192.765 5.12471 192.765 4.59351V4.58355C192.765 4.13204 192.897 3.74692 193.161 3.42821C193.431 3.10949 193.796 2.86713 194.254 2.70113C194.712 2.5285 195.233 2.44218 195.816 2.44218C196.42 2.43554 196.947 2.52186 197.398 2.70113C197.857 2.87377 198.221 3.11281 198.492 3.41825C198.769 3.72368 198.939 4.07228 199.002 4.46403L199.023 4.59351H201.303L201.293 4.46403C201.237 3.71372 200.977 3.03977 200.512 2.44218C200.054 1.84458 199.425 1.37315 198.627 1.02787C197.836 0.675958 196.909 0.5 195.847 0.5C194.785 0.5 193.844 0.675958 193.025 1.02787C192.206 1.37979 191.564 1.87114 191.099 2.50194C190.641 3.13273 190.408 3.86312 190.402 4.69311V4.70307C190.402 5.76546 190.749 6.63861 191.443 7.32252C192.137 7.99979 193.244 8.49447 194.764 8.80654L196.409 9.13522C197.402 9.34106 198.117 9.62657 198.554 9.99177C198.992 10.357 199.21 10.8151 199.21 11.3662V11.3762C199.21 11.8144 199.068 12.2029 198.783 12.5415C198.506 12.8801 198.12 13.1457 197.628 13.3383C197.135 13.5308 196.572 13.6271 195.941 13.6271C195.267 13.6271 194.667 13.5375 194.139 13.3582C193.619 13.1789 193.202 12.9299 192.89 12.6112C192.585 12.2925 192.408 11.9173 192.359 11.4858L192.349 11.3762H190.048L190.058 11.5057C190.127 12.3091 190.405 13.0163 190.891 13.6271C191.377 14.238 192.04 14.7161 192.88 15.0613C193.72 15.4 194.705 15.5693 195.837 15.5693Z" fill="#9EADBD"/>
<path d="M210.668 15.2207H213.001V0.848596H210.668V15.2207Z" fill="#9EADBD"/>
<path d="M216.877 15.2207H219.146V4.79271H220.333L218.73 4.00588L227.028 15.2207H229.142V0.848596H226.862V11.2866H225.685L227.278 12.0734L218.99 0.848596H216.877V15.2207Z" fill="#9EADBD"/>
<path d="M238.099 15.5693C239.265 15.5693 240.279 15.3867 241.139 15.0215C242 14.6563 242.663 14.1417 243.128 13.4777C243.6 12.8071 243.836 12.0136 243.836 11.0973V11.0874C243.836 10.025 243.489 9.17506 242.795 8.53763C242.108 7.90019 240.976 7.42212 239.4 7.1034L237.755 6.75481C236.791 6.55561 236.093 6.28005 235.663 5.92814C235.239 5.56958 235.027 5.12471 235.027 4.59351V4.58355C235.027 4.13204 235.159 3.74692 235.423 3.42821C235.694 3.10949 236.058 2.86713 236.516 2.70113C236.974 2.5285 237.495 2.44218 238.078 2.44218C238.682 2.43554 239.21 2.52186 239.661 2.70113C240.119 2.87377 240.483 3.11281 240.754 3.41825C241.032 3.72368 241.202 4.07228 241.264 4.46403L241.285 4.59351H243.565L243.555 4.46403C243.499 3.71372 243.239 3.03977 242.774 2.44218C242.316 1.84458 241.688 1.37315 240.889 1.02787C240.098 0.675958 239.171 0.5 238.109 0.5C237.047 0.5 236.107 0.675958 235.288 1.02787C234.469 1.37979 233.827 1.87114 233.361 2.50194C232.903 3.13273 232.671 3.86312 232.664 4.69311V4.70307C232.664 5.76546 233.011 6.63861 233.705 7.32252C234.399 7.99979 235.506 8.49447 237.027 8.80654L238.672 9.13522C239.664 9.34106 240.379 9.62657 240.817 9.99177C241.254 10.357 241.472 10.8151 241.472 11.3662V11.3762C241.472 11.8144 241.33 12.2029 241.046 12.5415C240.768 12.8801 240.383 13.1457 239.89 13.3383C239.397 13.5308 238.835 13.6271 238.203 13.6271C237.53 13.6271 236.929 13.5375 236.402 13.3582C235.881 13.1789 235.465 12.9299 235.152 12.6112C234.847 12.2925 234.67 11.9173 234.621 11.4858L234.611 11.3762H232.31L232.32 11.5057C232.39 12.3091 232.667 13.0163 233.153 13.6271C233.639 14.238 234.302 14.7161 235.142 15.0613C235.982 15.4 236.968 15.5693 238.099 15.5693Z" fill="#9EADBD"/>
<path d="M247.014 15.2207H249.347V0.848596H247.014V15.2207Z" fill="#9EADBD"/>
<path d="M259.563 15.5693C260.875 15.5693 262.017 15.3236 262.989 14.8323C263.961 14.3343 264.714 13.6371 265.248 12.7407C265.783 11.8377 266.05 10.7786 266.05 9.56349V7.78067H259.876V9.58341H263.739L263.728 9.90213C263.721 10.6392 263.544 11.2832 263.197 11.8343C262.85 12.3855 262.364 12.8171 261.739 13.1291C261.122 13.4346 260.403 13.5873 259.584 13.5873C258.647 13.5873 257.835 13.3649 257.148 12.92C256.46 12.4685 255.929 11.8277 255.555 10.9977C255.18 10.1611 254.992 9.17174 254.992 8.02967V8.00975C254.992 6.88097 255.176 5.9049 255.544 5.08155C255.919 4.25156 256.447 3.6108 257.127 3.15929C257.807 2.70777 258.609 2.48202 259.532 2.48202C260.559 2.48202 261.42 2.71109 262.114 3.16925C262.815 3.6274 263.298 4.28144 263.562 5.13135L263.593 5.23094H265.935L265.925 5.13135C265.745 4.20176 265.366 3.39169 264.79 2.70113C264.214 2.00394 263.478 1.46279 262.583 1.07767C261.687 0.692558 260.67 0.5 259.532 0.5C258.137 0.5 256.919 0.808756 255.877 1.42627C254.836 2.04378 254.031 2.91693 253.462 4.04572C252.893 5.16787 252.608 6.49253 252.608 8.01971V8.03963C252.608 9.57345 252.889 10.9081 253.451 12.0435C254.021 13.1723 254.826 14.0421 255.867 14.653C256.908 15.2639 258.14 15.5693 259.563 15.5693Z" fill="#9EADBD"/>
<path d="M269.364 15.2207H271.696V8.85634H279.401V15.2207H281.744V0.848596H279.401V6.92412H271.696V0.848596H269.364V15.2207Z" fill="#9EADBD"/>
<path d="M289.441 15.2207H291.773V2.78081H296.5V0.848596H284.714V2.78081H289.441V15.2207Z" fill="#9EADBD"/>
<path d="M175.78 35.2412H180.466C181.452 35.2412 182.316 35.0453 183.059 34.6535C183.808 34.2552 184.395 33.7007 184.818 32.9902C185.242 32.2731 185.453 31.4465 185.453 30.5102V30.4903C185.453 29.5541 185.242 28.7341 184.818 28.0302C184.395 27.3198 183.808 26.7686 183.059 26.3769C182.316 25.9785 181.452 25.7793 180.466 25.7793H175.78V27.6617H179.883C180.896 27.6617 181.681 27.9107 182.236 28.4087C182.798 28.9067 183.079 29.6072 183.079 30.5102V30.5302C183.079 31.4199 182.798 32.1171 182.236 32.6217C181.681 33.1197 180.896 33.3687 179.883 33.3687H175.78V35.2412ZM174.614 40.1514H176.947V25.7793H174.614V40.1514Z" fill="#9EADBD"/>
<path d="M188.569 40.1514H197.95V38.2192H190.901V25.7793H188.569V40.1514Z" fill="#9EADBD"/>
<path d="M199.848 40.1514H202.305L206.449 28.2991H207.157V25.7793H205.273L199.848 40.1514ZM202.461 36.267H210.614L209.958 34.4743H203.117L202.461 36.267ZM210.76 40.1514H213.217L207.803 25.7793H206.626V28.2991L210.76 40.1514Z" fill="#9EADBD"/>
<path d="M218.04 40.1514H220.373V27.7115H225.1V25.7793H213.313V27.7115H218.04V40.1514Z" fill="#9EADBD"/>
<path d="M228.059 40.1514H230.392V34.1356H236.847V32.2532H230.392V27.7115H237.44V25.7793H228.059V40.1514Z" fill="#9EADBD"/>
<path d="M246.98 40.5C248.424 40.5 249.67 40.1912 250.718 39.5737C251.774 38.9562 252.582 38.0864 253.144 36.9642C253.707 35.8355 253.988 34.5042 253.988 32.9703V32.9504C253.988 31.4099 253.703 30.0786 253.134 28.9565C252.572 27.8277 251.767 26.9579 250.718 26.347C249.67 25.7361 248.424 25.4307 246.98 25.4307C245.544 25.4307 244.298 25.7361 243.243 26.347C242.194 26.9579 241.386 27.8244 240.817 28.9465C240.247 30.0687 239.963 31.4033 239.963 32.9504V32.9703C239.963 34.5042 240.244 35.8355 240.806 36.9642C241.368 38.093 242.174 38.9662 243.222 39.5837C244.27 40.1946 245.523 40.5 246.98 40.5ZM246.98 38.518C246.016 38.518 245.186 38.2889 244.492 37.8307C243.805 37.3726 243.274 36.7285 242.899 35.8985C242.531 35.0619 242.347 34.0858 242.347 32.9703V32.9504C242.347 31.8216 242.538 30.8422 242.92 30.0122C243.302 29.1823 243.836 28.5415 244.523 28.09C245.217 27.6385 246.036 27.4127 246.98 27.4127C247.925 27.4127 248.744 27.6385 249.438 28.09C250.132 28.5415 250.666 29.1823 251.041 30.0122C251.416 30.8422 251.603 31.8216 251.603 32.9504V32.9703C251.603 34.0858 251.416 35.0619 251.041 35.8985C250.666 36.7285 250.132 37.3726 249.438 37.8307C248.744 38.2889 247.925 38.518 246.98 38.518Z" fill="#9EADBD"/>
<path d="M257.26 40.1514H259.592V34.6237H262.757C262.778 34.6237 262.799 34.6237 262.82 34.6237C262.841 34.6237 262.861 34.6237 262.882 34.6237L265.943 40.1514H268.64L265.277 34.285C266.193 33.9862 266.908 33.4716 267.422 32.7412C267.936 32.0042 268.192 31.151 268.192 30.1816V30.1616C268.192 29.2719 267.988 28.5017 267.578 27.8509C267.176 27.1936 266.599 26.6856 265.85 26.3271C265.1 25.9619 264.212 25.7793 263.184 25.7793H257.26V40.1514ZM259.592 32.811V27.6517H262.882C263.792 27.6517 264.5 27.8808 265.006 28.339C265.52 28.7971 265.777 29.4246 265.777 30.2214V30.2413C265.777 31.058 265.53 31.6921 265.038 32.1437C264.545 32.5885 263.851 32.811 262.955 32.811H259.592Z" fill="#9EADBD"/>
<path d="M271.631 40.1514H273.765V29.6138H274.911L272.485 26.1777L278.326 40.1514H280.054L285.906 26.1777L283.469 29.6138H284.625V40.1514H286.76V25.7793H284.063L279.284 37.2332H279.107L274.328 25.7793H271.631V40.1514Z" fill="#9EADBD"/>
<path d="M69.5641 25.8149H80.5032C79.8358 27.3973 78.7957 28.6535 77.3429 29.6318C75.6193 30.7945 73.3918 31.3852 70.7247 31.3852C67.1195 31.3852 64.195 30.3081 62.0319 28.1831C59.8419 26.0314 58.7751 23.3745 58.7751 20.0548C58.7751 16.6976 59.8258 14.0007 61.9863 11.8116C64.1441 9.6278 66.8273 8.56398 70.1913 8.56398C72.2526 8.56398 74.1451 9.0157 75.815 9.90578C77.4716 10.7878 78.7207 11.9425 79.5329 13.3324L79.9028 13.9659L87.4564 9.62245L87.0651 8.97828C85.4112 6.26796 83.0685 4.07083 80.1011 2.44571C77.1392 0.823254 73.8234 0 70.2476 0C64.5515 0 59.7052 1.95924 55.8453 5.82693C51.988 9.69195 50.0312 14.4791 50.0312 20.0521C50.0312 25.5931 52.0068 30.3535 55.9016 34.2025C59.7936 38.0488 64.7633 40 70.6711 40C76.2224 40 80.8222 38.2733 84.3471 34.8707C87.8773 31.4601 89.6678 26.9562 89.6678 21.4821V17.8897H69.5641V25.8149Z" fill="#24215A"/>
<path d="M104.376 0.740234H95.5781V39.2568H104.376V0.740234Z" fill="#24215A"/>
<path d="M136.118 4.55179C133.545 2.02323 130.334 0.740234 126.578 0.740234H111.988V39.2568H120.788V27.0844H126.578C130.336 27.0844 133.545 25.8014 136.118 23.2728C138.694 20.7416 140 17.5929 140 13.9096C140 10.2344 138.694 7.08303 136.118 4.55179ZM129.918 17.4031C129.031 18.336 127.937 18.7877 126.578 18.7877H120.788V9.03693H126.578C127.94 9.03693 129.034 9.4833 129.924 10.4001C130.819 11.3249 131.256 12.4716 131.256 13.9123C131.256 15.3182 130.819 16.4596 129.918 17.4031Z" fill="#24215A"/>
<path d="M22.9775 31.9414H14.8984V39.9975H22.9775V31.9414Z" fill="#007CFF"/>
<path d="M37.8102 32.5341H37.8772V0.0556641L18.9395 16.323L37.8102 32.5341Z" fill="#33C1FF"/>
<path d="M0 32.5341H0.0696931L18.9404 16.323L0 0.0556641V32.5341Z" fill="#1E398C"/>
<path d="M0 0V0.056131L18.9404 16.3234L37.8782 0.056131V0H0Z" fill="#007CFF"/>
<path d="M0.0351562 0.0556641L15.2551 19.4903L18.9059 16.323L0.0351562 0.0556641Z" fill="#24215A"/>
<rect x="154" y="0.5" width="2" height="40" fill="#9EADBD"/>
</svg>
