<svg width="140" height="20" viewBox="0 0 140 20" fill="none" xmlns="http://www.w3.org/2000/svg">
<path d="M85.2981 7.33873C85.9165 7.33873 86.4548 7.22292 86.9129 6.9913C87.371 6.75656 87.726 6.42792 87.9779 6.00538C88.2299 5.57971 88.3558 5.08048 88.3558 4.50771V3.66732H85.4454V4.5171H87.2662L87.2613 4.66733C87.2581 5.01475 87.1746 5.31836 87.011 5.57814C86.8474 5.83793 86.6184 6.04137 86.3239 6.18848C86.0327 6.33245 85.694 6.40444 85.3079 6.40444C84.8662 6.40444 84.4834 6.29959 84.1594 6.08989C83.8355 5.87705 83.5852 5.57501 83.4085 5.18377C83.2318 4.7894 83.1435 4.32304 83.1435 3.78469V3.7753C83.1435 3.24321 83.2302 2.78311 83.4036 2.395C83.5803 2.00376 83.829 1.70172 84.1496 1.48889C84.4703 1.27605 84.8482 1.16964 85.2834 1.16964C85.7677 1.16964 86.1734 1.27762 86.5006 1.49358C86.8311 1.70955 87.0585 2.01785 87.1828 2.41848L87.1975 2.46543H88.3018L88.2969 2.41848C88.2119 1.98029 88.0335 1.59844 87.762 1.27292C87.4904 0.944281 87.1435 0.689191 86.7215 0.507655C86.2994 0.32612 85.82 0.235352 85.2834 0.235352C84.6257 0.235352 84.0515 0.380893 83.5607 0.671977C83.0699 0.96306 82.6903 1.37465 82.422 1.90673C82.1537 2.43569 82.0195 3.06011 82.0195 3.78V3.78939C82.0195 4.5124 82.152 5.14152 82.4171 5.67673C82.6854 6.20882 83.0649 6.61884 83.5558 6.9068C84.0466 7.19475 84.6273 7.33873 85.2981 7.33873Z" fill="#9EADBD"/>
<path d="M92.3129 7.33873C92.8626 7.33873 93.3403 7.25265 93.7461 7.08051C94.1518 6.90836 94.4643 6.66579 94.6835 6.3528C94.906 6.03668 95.0173 5.66265 95.0173 5.23072V5.22602C95.0173 4.72524 94.8536 4.3246 94.5264 4.02413C94.2025 3.72366 93.6692 3.4983 92.9264 3.34807L92.1509 3.18375C91.6961 3.08985 91.3673 2.95996 91.1644 2.79407C90.9648 2.62505 90.865 2.41535 90.865 2.16495V2.16026C90.865 1.94742 90.9272 1.76589 91.0515 1.61565C91.1791 1.46541 91.3509 1.35117 91.5669 1.27292C91.7828 1.19155 92.0282 1.15086 92.3031 1.15086C92.5878 1.14773 92.8364 1.18842 93.0491 1.27292C93.2651 1.3543 93.4369 1.46698 93.5645 1.61096C93.6953 1.75493 93.7755 1.91925 93.805 2.10392L93.8148 2.16495H94.8896L94.8847 2.10392C94.8586 1.75024 94.7359 1.43255 94.5166 1.15086C94.3007 0.869162 94.0046 0.646937 93.6283 0.484181C93.2553 0.318295 92.8184 0.235352 92.3178 0.235352C91.8172 0.235352 91.3738 0.318295 90.9877 0.484181C90.6016 0.650067 90.299 0.881682 90.0797 1.17903C89.8638 1.47637 89.7542 1.82066 89.7509 2.2119V2.2166C89.7509 2.71739 89.9145 3.12897 90.2417 3.45135C90.5689 3.77061 91.0908 4.00379 91.8074 4.15089L92.5829 4.30583C93.0508 4.40285 93.3878 4.53744 93.5939 4.70959C93.8001 4.88173 93.9031 5.0977 93.9031 5.35748V5.36218C93.9031 5.56875 93.836 5.75185 93.7019 5.91148C93.571 6.07111 93.3894 6.1963 93.1571 6.28707C92.9248 6.37784 92.6597 6.42322 92.362 6.42322C92.0446 6.42322 91.7616 6.38097 91.5129 6.29646C91.2675 6.21195 91.0712 6.09458 90.9239 5.94434C90.78 5.79411 90.6965 5.61727 90.6736 5.41382L90.6687 5.36218H89.584L89.5889 5.42321C89.6217 5.80193 89.7525 6.13527 89.9816 6.42322C90.2106 6.71118 90.5231 6.93653 90.919 7.09929C91.3149 7.25891 91.7796 7.33873 92.3129 7.33873Z" fill="#9EADBD"/>
<path d="M99.3043 7.17441H100.404V0.399673H99.3043V7.17441Z" fill="#9EADBD"/>
<path d="M102.231 7.17441H103.301V2.25885H103.86L103.104 1.88795L107.016 7.17441H108.012V0.399673H106.938V5.31992H106.383L107.134 5.69082L103.227 0.399673H102.231V7.17441Z" fill="#9EADBD"/>
<path d="M112.235 7.33873C112.784 7.33873 113.262 7.25265 113.668 7.08051C114.073 6.90836 114.386 6.66579 114.605 6.3528C114.828 6.03668 114.939 5.66265 114.939 5.23072V5.22602C114.939 4.72524 114.775 4.3246 114.448 4.02413C114.124 3.72366 113.591 3.4983 112.848 3.34807L112.073 3.18375C111.618 3.08985 111.289 2.95996 111.086 2.79407C110.886 2.62505 110.787 2.41535 110.787 2.16495V2.16026C110.787 1.94742 110.849 1.76589 110.973 1.61565C111.101 1.46541 111.273 1.35117 111.489 1.27292C111.704 1.19155 111.95 1.15086 112.225 1.15086C112.509 1.14773 112.758 1.18842 112.971 1.27292C113.187 1.3543 113.358 1.46698 113.486 1.61096C113.617 1.75493 113.697 1.91925 113.727 2.10392L113.736 2.16495H114.811L114.806 2.10392C114.78 1.75024 114.657 1.43255 114.438 1.15086C114.222 0.869162 113.926 0.646937 113.55 0.484181C113.177 0.318295 112.74 0.235352 112.239 0.235352C111.739 0.235352 111.295 0.318295 110.909 0.484181C110.523 0.650067 110.221 0.881682 110.001 1.17903C109.785 1.47637 109.676 1.82066 109.673 2.2119V2.2166C109.673 2.71739 109.836 3.12897 110.163 3.45135C110.491 3.77061 111.012 4.00379 111.729 4.15089L112.504 4.30583C112.972 4.40285 113.309 4.53744 113.516 4.70959C113.722 4.88173 113.825 5.0977 113.825 5.35748V5.36218C113.825 5.56875 113.758 5.75185 113.624 5.91148C113.493 6.07111 113.311 6.1963 113.079 6.28707C112.846 6.37784 112.581 6.42322 112.284 6.42322C111.966 6.42322 111.683 6.38097 111.435 6.29646C111.189 6.21195 110.993 6.09458 110.846 5.94434C110.702 5.79411 110.618 5.61727 110.595 5.41382L110.59 5.36218H109.506L109.511 5.42321C109.543 5.80193 109.674 6.13527 109.903 6.42322C110.132 6.71118 110.445 6.93653 110.841 7.09929C111.237 7.25891 111.701 7.33873 112.235 7.33873Z" fill="#9EADBD"/>
<path d="M116.437 7.17441H117.536V0.399673H116.437V7.17441Z" fill="#9EADBD"/>
<path d="M122.352 7.33873C122.971 7.33873 123.509 7.22292 123.967 6.9913C124.425 6.75656 124.78 6.42792 125.032 6.00538C125.284 5.57971 125.41 5.08048 125.41 4.50771V3.66732H122.5V4.5171H124.321L124.316 4.66733C124.312 5.01475 124.229 5.31836 124.065 5.57814C123.902 5.83793 123.673 6.04137 123.378 6.18848C123.087 6.33245 122.748 6.40444 122.362 6.40444C121.92 6.40444 121.538 6.29959 121.214 6.08989C120.89 5.87705 120.639 5.57501 120.463 5.18377C120.286 4.7894 120.198 4.32304 120.198 3.78469V3.7753C120.198 3.24321 120.284 2.78311 120.458 2.395C120.635 2.00376 120.883 1.70172 121.204 1.48889C121.525 1.27605 121.902 1.16964 122.338 1.16964C122.822 1.16964 123.228 1.27762 123.555 1.49358C123.885 1.70955 124.113 2.01785 124.237 2.41848L124.252 2.46543H125.356L125.351 2.41848C125.266 1.98029 125.088 1.59844 124.816 1.27292C124.545 0.944281 124.198 0.689191 123.776 0.507655C123.354 0.32612 122.874 0.235352 122.338 0.235352C121.68 0.235352 121.106 0.380893 120.615 0.671977C120.124 0.96306 119.745 1.37465 119.476 1.90673C119.208 2.43569 119.074 3.06011 119.074 3.78V3.78939C119.074 4.5124 119.206 5.14152 119.471 5.67673C119.74 6.20882 120.119 6.61884 120.61 6.9068C121.101 7.19475 121.682 7.33873 122.352 7.33873Z" fill="#9EADBD"/>
<path d="M126.972 7.17441H128.071V4.17437H131.703V7.17441H132.808V0.399673H131.703V3.26356H128.071V0.399673H126.972V7.17441Z" fill="#9EADBD"/>
<path d="M136.436 7.17441H137.535V1.31048H139.764V0.399673H134.208V1.31048H136.436V7.17441Z" fill="#9EADBD"/>
<path d="M82.8588 16.6117H85.0674C85.5321 16.6117 85.9394 16.5193 86.2895 16.3347C86.6429 16.1469 86.9194 15.8855 87.119 15.5506C87.3186 15.2126 87.4184 14.8229 87.4184 14.3816V14.3722C87.4184 13.9309 87.3186 13.5443 87.119 13.2126C86.9194 12.8777 86.6429 12.6179 86.2895 12.4332C85.9394 12.2454 85.5321 12.1515 85.0674 12.1515H82.8588V13.0389H84.7926C85.2703 13.0389 85.64 13.1562 85.9018 13.391C86.1668 13.6257 86.2994 13.9559 86.2994 14.3816V14.391C86.2994 14.8104 86.1668 15.139 85.9018 15.3769C85.64 15.6117 85.2703 15.729 84.7926 15.729H82.8588V16.6117ZM82.3091 18.9262H83.4085V12.1515H82.3091V18.9262Z" fill="#9EADBD"/>
<path d="M88.8871 18.9262H93.3092V18.0154H89.9865V12.1515H88.8871V18.9262Z" fill="#9EADBD"/>
<path d="M94.2037 18.9262H95.362L97.3154 13.3393H97.6492V12.1515H96.7608L94.2037 18.9262ZM95.4356 17.0952H99.2786L98.9694 16.2502H95.7448L95.4356 17.0952ZM99.3473 18.9262H100.506L97.9534 12.1515H97.3988V13.3393L99.3473 18.9262Z" fill="#9EADBD"/>
<path d="M102.779 18.9262H103.879V13.0623H106.107V12.1515H100.551V13.0623H102.779V18.9262Z" fill="#9EADBD"/>
<path d="M107.502 18.9262H108.601V16.0905H111.644V15.2032H108.601V13.0623H111.924V12.1515H107.502V18.9262Z" fill="#9EADBD"/>
<path d="M116.421 19.0906C117.102 19.0906 117.689 18.945 118.183 18.6539C118.68 18.3629 119.062 17.9528 119.327 17.4239C119.592 16.8918 119.724 16.2642 119.724 15.5412V15.5318C119.724 14.8057 119.59 14.1781 119.322 13.6492C119.057 13.1171 118.677 12.7071 118.183 12.4191C117.689 12.1312 117.102 11.9872 116.421 11.9872C115.744 11.9872 115.156 12.1312 114.659 12.4191C114.165 12.7071 113.784 13.1155 113.516 13.6445C113.247 14.1735 113.113 14.8026 113.113 15.5318V15.5412C113.113 16.2642 113.246 16.8918 113.511 17.4239C113.776 17.956 114.155 18.3676 114.649 18.6586C115.143 18.9466 115.734 19.0906 116.421 19.0906ZM116.421 18.1563C115.966 18.1563 115.575 18.0483 115.248 17.8323C114.924 17.6164 114.674 17.3128 114.497 16.9215C114.324 16.5272 114.237 16.0671 114.237 15.5412V15.5318C114.237 14.9998 114.327 14.5381 114.507 14.1468C114.687 13.7556 114.939 13.4536 115.263 13.2407C115.59 13.0279 115.976 12.9215 116.421 12.9215C116.866 12.9215 117.252 13.0279 117.579 13.2407C117.907 13.4536 118.159 13.7556 118.335 14.1468C118.512 14.5381 118.6 14.9998 118.6 15.5318V15.5412C118.6 16.0671 118.512 16.5272 118.335 16.9215C118.159 17.3128 117.907 17.6164 117.579 17.8323C117.252 18.0483 116.866 18.1563 116.421 18.1563Z" fill="#9EADBD"/>
<path d="M121.267 18.9262H122.366V16.3206H123.858C123.868 16.3206 123.878 16.3206 123.887 16.3206C123.897 16.3206 123.907 16.3206 123.917 16.3206L125.36 18.9262H126.631L125.046 16.161C125.478 16.0201 125.815 15.7775 126.057 15.4332C126.299 15.0858 126.42 14.6836 126.42 14.2267V14.2173C126.42 13.7979 126.323 13.4348 126.13 13.1281C125.941 12.8182 125.669 12.5788 125.316 12.4097C124.962 12.2376 124.543 12.1515 124.059 12.1515H121.267V18.9262ZM122.366 15.4661V13.0342H123.917C124.346 13.0342 124.679 13.1421 124.918 13.3581C125.16 13.5741 125.281 13.8698 125.281 14.2454V14.2548C125.281 14.6398 125.165 14.9387 124.933 15.1516C124.701 15.3613 124.373 15.4661 123.951 15.4661H122.366Z" fill="#9EADBD"/>
<path d="M128.041 18.9262H129.047V13.959H129.587L128.443 12.3393L131.197 18.9262H132.011L134.77 12.3393L133.621 13.959H134.166V18.9262H135.172V12.1515H133.901L131.648 17.5506H131.565L129.312 12.1515H128.041V18.9262Z" fill="#9EADBD"/>
<g clip-path="url(#clip0_81968_4368)">
<path d="M32.7914 12.1686H37.9479C37.6333 12.9145 37.143 13.5067 36.4582 13.9679C35.6457 14.5159 34.5957 14.7944 33.3385 14.7944C31.639 14.7944 30.2605 14.2866 29.2408 13.285C28.2085 12.2707 27.7056 11.0183 27.7056 9.45344C27.7056 7.87094 28.2009 6.59964 29.2194 5.56774C30.2365 4.53836 31.5013 4.03689 33.087 4.03689C34.0587 4.03689 34.9508 4.24983 35.7379 4.66939C36.5188 5.08518 37.1076 5.62948 37.4905 6.28465L37.6648 6.58326L41.2255 4.53584L41.041 4.23219C40.2614 2.95459 39.1571 1.91891 37.7583 1.15286C36.3621 0.388066 34.7991 0 33.1136 0C30.4286 0 28.1441 0.923547 26.3246 2.7467C24.5064 4.5686 23.584 6.82517 23.584 9.45218C23.584 12.0641 24.5152 14.308 26.3511 16.1224C28.1858 17.9355 30.5284 18.8552 33.3132 18.8552C35.93 18.8552 38.0982 18.0413 39.7598 16.4374C41.4239 14.8297 42.2679 12.7066 42.2679 10.1263V8.43288H32.7914V12.1686V12.1686Z" fill="#24215A"/>
<path d="M49.1997 0.348633H45.0527V18.5046H49.1997V0.348633Z" fill="#24215A"/>
<path d="M64.1634 2.14533C62.9504 0.953411 61.4367 0.348633 59.6665 0.348633H52.7891V18.5046H56.9373V12.7667H59.6665C61.438 12.7667 62.9504 12.162 64.1634 10.97C65.3777 9.77687 65.993 8.29265 65.993 6.55643C65.993 4.82399 65.3777 3.3385 64.1634 2.14533ZM61.2409 8.20319C60.8226 8.64291 60.3071 8.85585 59.6665 8.85585H56.9373V4.25953H59.6665C60.3084 4.25953 60.8239 4.46994 61.2434 4.90211C61.6654 5.33805 61.8714 5.87857 61.8714 6.55769C61.8714 7.22042 61.6654 7.75842 61.2409 8.20319Z" fill="#24215A"/>
<path d="M10.8317 15.0566H7.02344V18.8541H10.8317V15.0566Z" fill="#007CFF"/>
<path d="M17.823 15.3361H17.8546V0.0263672L8.92773 7.69445L17.823 15.3361Z" fill="#33C1FF"/>
<path d="M0 15.3361H0.032852L8.92815 7.69445L0 0.0263672V15.3361Z" fill="#1E398C"/>
<path d="M0 0V0.026459L8.92815 7.69454L17.855 0.026459V0H0Z" fill="#007CFF"/>
<path d="M0.015625 0.0263672L7.18999 9.1875L8.91093 7.69445L0.015625 0.0263672Z" fill="#24215A"/>
</g>
<defs>
<clipPath id="clip0_81968_4368">
<rect width="65.9933" height="18.8552" fill="white"/>
</clipPath>
</defs>
</svg>
